<svg xmlns="http://www.w3.org/2000/svg" width="1400" height="520" viewBox="0 0 1400 520" role="img" aria-labelledby="title desc" aria-label="AI-assisted conceptual illustration; not computational data">
<title id="title">TsaoDFT evidence-first scientific software</title><desc id="desc">AI-assisted conceptual illustration for an auditable DFT research workflow; not computational or scientific data.</desc>
<defs><pattern id="dotgrid" width="24" height="24" patternUnits="userSpaceOnUse"><circle cx="2" cy="2" r="1" fill="#E9EEF5"/></pattern><filter id="shadow" x="-20%" y="-20%" width="140%" height="140%"><feDropShadow dx="0" dy="8" stdDeviation="14" flood-color="#0B1220" flood-opacity=".08"/></filter></defs><style>
.text{font-family:Inter,Segoe UI,Arial,sans-serif;fill:#0B1220}
.mono{font-family:JetBrains Mono,SFMono-Regular,Consolas,monospace;fill:#0B1220}
.eyebrow{font-family:Inter,Segoe UI,Arial,sans-serif;font-size:12px;font-weight:800;letter-spacing:1.8px;fill:#2563EB}
.title{font-family:Inter,Segoe UI,Arial,sans-serif;font-size:32px;font-weight:780;letter-spacing:-.7px;fill:#0B1220}
.h2{font-family:Inter,Segoe UI,Arial,sans-serif;font-size:20px;font-weight:760;fill:#0B1220}
.body{font-family:Inter,Segoe UI,Arial,sans-serif;font-size:14px;font-weight:450;fill:#526175}
.small{font-family:Inter,Segoe UI,Arial,sans-serif;font-size:12px;font-weight:500;fill:#526175}
.tiny{font-family:Inter,Segoe UI,Arial,sans-serif;font-size:10px;font-weight:650;letter-spacing:.5px;fill:#7A889B}
.label{font-family:Inter,Segoe UI,Arial,sans-serif;font-size:11px;font-weight:800;letter-spacing:.9px;fill:#526175}
.mono12{font-family:JetBrains Mono,SFMono-Regular,Consolas,monospace;font-size:12px;font-weight:600;fill:#0B1220}
</style>
<rect x="0" y="0" width="1400" height="520" rx="0" fill="#F6F8FC"/><rect x="0" y="0" width="1400" height="520" fill="url(#dotgrid)" opacity=".65"/><rect x="34" y="30" width="1332" height="460" rx="24" fill="#FFFFFF" stroke="#D9E2EE" stroke-width="1"/><rect x="34" y="30" width="18" height="460" rx="24" fill="#101A2D"/><text x="76" y="72" class="eyebrow">SCIENTIFIC SOFTWARE / EVIDENCE-FIRST DFT</text><text x="76" y="148" class="text" font-size="72" font-weight="800">TsaoDFT</text><text x="78" y="187" class="body"><tspan x="78" dy="0">From reviewed model definition to bounded,</tspan><tspan x="78" dy="24">traceable scientific claims.</tspan></text><rect x="78" y="246" width="138" height="28" rx="14" fill="#DBEAFE"/><text x="147.0" y="265" class="label" text-anchor="middle" style="fill:#2563EB">MOLECULAR DFT</text><rect x="228" y="246" width="142" height="28" rx="14" fill="#CFFAFE"/><text x="299.0" y="265" class="label" text-anchor="middle" style="fill:#0891B2">PERIODIC DFT</text><rect x="382" y="246" width="126" height="28" rx="14" fill="#DCFCE7"/><text x="445.0" y="265" class="label" text-anchor="middle" style="fill:#16A34A">HPC + ML</text><line x1="98" y1="337" x2="185" y2="337" stroke="#D9E2EE" stroke-width="3"/><circle cx="78" cy="337" r="15" fill="#FFFFFF" stroke="#2563EB" stroke-width="3"/><text x="78" y="341" class="tiny" text-anchor="middle" style="fill:#2563EB">01</text><text x="78" y="378" class="label" text-anchor="middle">MODEL</text><text x="78" y="398" class="small" text-anchor="middle">charge · spin</text><line x1="225" y1="337" x2="312" y2="337" stroke="#D9E2EE" stroke-width="3"/><circle cx="205" cy="337" r="15" fill="#FFFFFF" stroke="#0891B2" stroke-width="3"/><text x="205" y="341" class="tiny" text-anchor="middle" style="fill:#0891B2">02</text><text x="205" y="378" class="label" text-anchor="middle">METHOD</text><text x="205" y="398" class="small" text-anchor="middle">fingerprint</text><line x1="352" y1="337" x2="439" y2="337" stroke="#D9E2EE" stroke-width="3"/><circle cx="332" cy="337" r="15" fill="#FFFFFF" stroke="#6D5DFB" stroke-width="3"/><text x="332" y="341" class="tiny" text-anchor="middle" style="fill:#6D5DFB">03</text><text x="332" y="378" class="label" text-anchor="middle">RUN</text><text x="332" y="398" class="small" text-anchor="middle">engine · hashes</text><line x1="479" y1="337" x2="566" y2="337" stroke="#D9E2EE" stroke-width="3"/><circle cx="459" cy="337" r="15" fill="#FFFFFF" stroke="#D97706" stroke-width="3"/><text x="459" y="341" class="tiny" text-anchor="middle" style="fill:#D97706">04</text><text x="459" y="378" class="label" text-anchor="middle">VALIDATE</text><text x="459" y="398" class="small" text-anchor="middle">technical + scientific</text><circle cx="586" cy="337" r="15" fill="#FFFFFF" stroke="#16A34A" stroke-width="3"/><text x="586" y="341" class="tiny" text-anchor="middle" style="fill:#16A34A">05</text><text x="586" y="378" class="label" text-anchor="middle">CLAIM</text><text x="586" y="398" class="small" text-anchor="middle">scope explicit</text><rect x="690" y="58" width="638" height="196" rx="20" fill="#101A2D"/><text x="722" y="90" class="eyebrow" style="fill:#93C5FD">EVIDENCE GATES</text><text x="722" y="126" class="text" style="fill:#FFFFFF" font-size="28" font-weight="760">A visual contract for</text><text x="722" y="160" class="text" style="fill:#FFFFFF" font-size="28" font-weight="760">auditable research</text><circle cx="1162" cy="118" r="10" fill="#2563EB"/><circle cx="1220" cy="96" r="10" fill="#0891B2"/><circle cx="1260" cy="148" r="10" fill="#6D5DFB"/><circle cx="1192" cy="174" r="10" fill="#16A34A"/><line x1="1162" y1="118" x2="1220" y2="96" stroke="#93A9C7" stroke-width="2"/><line x1="1220" y1="96" x2="1260" y2="148" stroke="#93A9C7" stroke-width="2"/><line x1="1260" y1="148" x2="1192" y2="174" stroke="#93A9C7" stroke-width="2"/><line x1="1192" y1="174" x2="1162" y2="118" stroke="#93A9C7" stroke-width="2"/><line x1="1162" y1="118" x2="1260" y2="148" stroke="#93A9C7" stroke-width="2"/><rect x="722" y="190" width="150" height="28" rx="14" fill="#1E3A5F" stroke="#31557B" stroke-width="1"/><text x="797.0" y="209" class="label" text-anchor="middle" style="fill:#BFDBFE">TECHNICALLY VALID</text><rect x="884" y="190" width="158" height="28" rx="14" fill="#173C35" stroke="#29685C" stroke-width="1"/><text x="963.0" y="209" class="label" text-anchor="middle" style="fill:#BBF7D0">SCIENTIFICALLY VALID</text><rect x="1054" y="190" width="228" height="28" rx="14" fill="#4A3514" stroke="#765525" stroke-width="1"/><text x="1168.0" y="209" class="label" text-anchor="middle" style="fill:#FDE68A">CLAIM SCOPE EXPLICIT</text><rect x="690" y="274" width="202" height="160" rx="18" fill="#FFFFFF" stroke="#D9E2EE" stroke-width="1"/><circle cx="714" cy="301" r="7" fill="#2563EB"/><text x="732" y="306" class="label">MODEL CONTRACT</text><line x1="708" y1="324" x2="874" y2="324" stroke="#E9EEF5" stroke-width="1"/><text x="708" y="353" class="small">Structure identity</text><text x="708" y="379" class="small">Charge / spin</text><text x="708" y="405" class="small">Atom ordering</text><rect x="906" y="274" width="202" height="160" rx="18" fill="#FFFFFF" stroke="#D9E2EE" stroke-width="1"/><circle cx="930" cy="301" r="7" fill="#0891B2"/><text x="948" y="306" class="label">RUN RECORD</text><line x1="924" y1="324" x2="1090" y2="324" stroke="#E9EEF5" stroke-width="1"/><text x="924" y="353" class="small">Engine version</text><text x="924" y="379" class="small">Input + output hash</text><text x="924" y="405" class="small">Restart lineage</text><rect x="1122" y="274" width="206" height="160" rx="18" fill="#FFFFFF" stroke="#D9E2EE" stroke-width="1"/><circle cx="1146" cy="301" r="7" fill="#16A34A"/><text x="1164" y="306" class="label">CLAIM LEDGER</text><line x1="1140" y1="324" x2="1310" y2="324" stroke="#E9EEF5" stroke-width="1"/><text x="1140" y="353" class="small">Evidence grade</text><text x="1140" y="379" class="small">Assumptions visible</text><text x="1140" y="405" class="small">Acceptance owner</text><text x="1372" y="502" class="tiny" text-anchor="end">AI-ASSISTED CONCEPTUAL ILLUSTRATION · NOT COMPUTATIONAL DATA</text>
</svg>