<svg xmlns="http://www.w3.org/2000/svg" width="360" height="197" viewBox="0 0 360 197" role="img" aria-label="AI-assisted conceptual illustration; not computational data"><defs><radialGradient id="g"><stop stop-color="#17365a"/><stop offset="1" stop-color="#07111f"/></radialGradient><filter id="gl"><feGaussianBlur stdDeviation="3" result="b"/><feMerge><feMergeNode in="b"/><feMergeNode in="SourceGraphic"/></feMerge></filter></defs><rect width="360" height="197" rx="16" fill="url(#g)"/><text x="18" y="28" fill="#e5f3ff" font-family="Arial" font-size="14" font-weight="700">CATALYSIS PROFILE</text><g filter="url(#gl)"><circle cx="176" cy="100" r="22" fill="#4c1d95" stroke="#a78bfa" stroke-width="3"/><text x="176" y="105" text-anchor="middle" fill="#fff" font-family="Arial" font-size="12">Ti</text><circle cx="91" cy="68" r="12" fill="#164e63"/><circle cx="90" cy="134" r="12" fill="#164e63"/><circle cx="267" cy="68" r="12" fill="#713f12"/><circle cx="267" cy="134" r="12" fill="#713f12"/><path d="M103 73 L154 94 M103 129 L154 106 M198 94 L255 73 M198 106 L255 129" stroke="#60a5fa" stroke-width="3"/></g><path d="M42 42 C70 27 101 30 125 43" fill="none" stroke="#f472b6" stroke-width="2"/><path d="M235 157 C264 171 294 167 320 153" fill="none" stroke="#2dd4bf" stroke-width="2"/><text x="79" y="166" fill="#e5f3ff" font-family="Arial" font-size="10">coordination · insertion · transfer · claim scope</text><rect y="176" width="360" height="21" fill="#050b13"/><text x="180" y="190" text-anchor="middle" fill="#7aa2c8" font-family="Arial" font-size="8">AI-ASSISTED CONCEPT · NOT COMPUTATIONAL DATA</text></svg>
