<svg xmlns="http://www.w3.org/2000/svg" width="560" height="300" viewBox="0 0 560 300" role="img" aria-label="AI-assisted conceptual illustration; not computational data">
<title>Catalysis Profile</title>
<defs>
  <linearGradient id="bg" x1="0" y1="0" x2="1" y2="1"><stop stop-color="#050914"/><stop offset=".48" stop-color="#0b2442"/><stop offset="1" stop-color="#24113e"/></linearGradient>
  <linearGradient id="cyan" x1="0" x2="1"><stop stop-color="#67e8f9"/><stop offset="1" stop-color="#38bdf8"/></linearGradient>
  <linearGradient id="violet" x1="0" x2="1"><stop stop-color="#c4b5fd"/><stop offset="1" stop-color="#8b5cf6"/></linearGradient>
  <linearGradient id="gold" x1="0" x2="1"><stop stop-color="#fde68a"/><stop offset="1" stop-color="#f59e0b"/></linearGradient>
  <radialGradient id="orb"><stop stop-color="#67e8f9" stop-opacity=".92"/><stop offset=".45" stop-color="#8b5cf6" stop-opacity=".55"/><stop offset="1" stop-color="#8b5cf6" stop-opacity="0"/></radialGradient>
  <filter id="glow" x="-60%" y="-60%" width="220%" height="220%"><feGaussianBlur stdDeviation="7" result="b"/><feMerge><feMergeNode in="b"/><feMergeNode in="SourceGraphic"/></feMerge></filter>
  <filter id="shadow" x="-30%" y="-30%" width="160%" height="160%"><feDropShadow dx="0" dy="10" stdDeviation="12" flood-color="#020617" flood-opacity=".42"/></filter>
  <pattern id="grid" width="32" height="32" patternUnits="userSpaceOnUse"><path d="M32 0H0V32" fill="none" stroke="#7dd3fc" stroke-opacity=".055"/></pattern>
  <style><![CDATA[
    .title{font:700 34px Inter,Arial,sans-serif;fill:#f8fafc;letter-spacing:-.7px}
    .sub{font:400 15px Inter,Arial,sans-serif;fill:#a8c7e8}
    .kicker{font:700 11px Inter,Arial,sans-serif;fill:#67e8f9;letter-spacing:1.6px}
    .h{font:700 18px Inter,Arial,sans-serif;fill:#f8fafc}
    .b{font:400 12px Inter,Arial,sans-serif;fill:#b8cce2}
    .tiny{font:600 10px Inter,Arial,sans-serif;fill:#90aac5;letter-spacing:.45px}
    .pill{fill:#0b1f36;stroke:#2f5d85;stroke-width:1}
  ]]></style>
</defs>
<rect width="560" height="300" rx="24" fill="url(#bg)"/>
<rect width="560" height="300" rx="24" fill="url(#grid)"/>
<text x="24" y="34" class="kicker">COORDINATION · PATHWAYS · SCOPE</text><text x="24" y="66" class="h" font-size="23">Catalysis Profile</text><text x="24" y="88" class="b">Scoped organometallic and polyolefin workflows</text><rect x="22" y="106" width="516" height="150" rx="20" fill="#07192d" stroke="#2c557a"/><g transform="translate(56 127)"><circle cx="126" cy="71" r="32" fill="#102f4c" stroke="#f59e0b" stroke-width="3"/><text x="126" y="77" text-anchor="middle" class="h">Ti</text><g stroke="#c4b5fd" stroke-width="3"><line x1="98" y1="55" x2="57" y2="30"/><line x1="98" y1="87" x2="57" y2="112"/><line x1="154" y1="55" x2="195" y2="30"/><line x1="154" y1="87" x2="195" y2="112"/></g><g fill="#34d399"><circle cx="51" cy="27" r="10"/><circle cx="51" cy="115" r="10"/></g><g fill="#67e8f9"><circle cx="201" cy="27" r="10"/><circle cx="201" cy="115" r="10"/></g><path d="M245 71H310" stroke="#fde68a" stroke-width="3"/><path d="M310 71l-13-8v16z" fill="#fde68a"/><path d="M337 108c24-49 55-72 104-74" fill="none" stroke="#67e8f9" stroke-width="3"/><circle cx="337" cy="108" r="7" fill="#8b5cf6"/><circle cx="441" cy="34" r="7" fill="#34d399"/><text x="388" y="132" text-anchor="middle" class="tiny">STATE / PATH / CLAIM SCOPE</text></g>
<rect x="0" y="272" width="560" height="28" fill="#020617" fill-opacity=".9"/>
<text x="542" y="290" text-anchor="end" class="tiny" fill="#7dd3fc">AI-ASSISTED CONCEPTUAL ILLUSTRATION · NOT COMPUTATIONAL DATA</text>
</svg>