<svg xmlns="http://www.w3.org/2000/svg" width="640" height="360" viewBox="0 0 640 360" role="img" aria-label="AI-assisted conceptual illustration; not computational data"><title>DFT + ML</title><defs>
<linearGradient id="bg" x1="0" y1="0" x2="1" y2="1"><stop stop-color="#030711"/><stop offset=".44" stop-color="#071d35"/><stop offset="1" stop-color="#1b0b35"/></linearGradient>
<linearGradient id="panel" x1="0" y1="0" x2="1" y2="1"><stop stop-color="#0e2946" stop-opacity=".96"/><stop offset="1" stop-color="#0a1427" stop-opacity=".98"/></linearGradient>
<linearGradient id="cyan" x1="0" y1="0" x2="1" y2="1"><stop stop-color="#a5f3fc"/><stop offset=".48" stop-color="#22d3ee"/><stop offset="1" stop-color="#0284c7"/></linearGradient>
<linearGradient id="violet" x1="0" y1="0" x2="1" y2="1"><stop stop-color="#ddd6fe"/><stop offset=".5" stop-color="#a78bfa"/><stop offset="1" stop-color="#6d28d9"/></linearGradient>
<linearGradient id="amber" x1="0" y1="0" x2="1" y2="1"><stop stop-color="#fef3c7"/><stop offset=".5" stop-color="#fbbf24"/><stop offset="1" stop-color="#d97706"/></linearGradient>
<linearGradient id="emerald" x1="0" y1="0" x2="1" y2="1"><stop stop-color="#d1fae5"/><stop offset=".5" stop-color="#34d399"/><stop offset="1" stop-color="#059669"/></linearGradient>
<linearGradient id="rose" x1="0" y1="0" x2="1" y2="1"><stop stop-color="#ffe4e6"/><stop offset=".5" stop-color="#fb7185"/><stop offset="1" stop-color="#be123c"/></linearGradient>
<radialGradient id="halo"><stop stop-color="#67e8f9" stop-opacity=".7"/><stop offset=".38" stop-color="#8b5cf6" stop-opacity=".28"/><stop offset="1" stop-color="#8b5cf6" stop-opacity="0"/></radialGradient>
<pattern id="grid" width="34" height="34" patternUnits="userSpaceOnUse"><path d="M34 0H0V34" fill="none" stroke="#7dd3fc" stroke-opacity=".045" stroke-width="1"/></pattern>
<filter id="glow" x="-80%" y="-80%" width="260%" height="260%"><feGaussianBlur stdDeviation="7" result="b"/><feMerge><feMergeNode in="b"/><feMergeNode in="SourceGraphic"/></feMerge></filter>
<filter id="soft" x="-40%" y="-40%" width="180%" height="180%"><feGaussianBlur stdDeviation="18"/></filter>
<filter id="shadow" x="-40%" y="-40%" width="180%" height="180%"><feDropShadow dx="0" dy="12" stdDeviation="14" flood-color="#020617" flood-opacity=".55"/></filter>
<marker id="arrow" markerWidth="10" markerHeight="10" refX="9" refY="5" orient="auto"><path d="M0 0L10 5L0 10Z" fill="#67e8f9"/></marker>
<style><![CDATA[
.t{font-family:Inter,Segoe UI,Arial,sans-serif}.k{font-family:Inter,Segoe UI,Arial,sans-serif;font-weight:700;font-size:11px;fill:#67e8f9;letter-spacing:1.8px}.h1{font-family:Inter,Segoe UI,Arial,sans-serif;font-weight:700;font-size:42px;fill:#f8fafc;letter-spacing:-1px}.h2{font-family:Inter,Segoe UI,Arial,sans-serif;font-weight:700;font-size:24px;fill:#f8fafc;letter-spacing:-.4px}.s{font-family:Inter,Segoe UI,Arial,sans-serif;font-weight:400;font-size:14px;fill:#a9c4df}.b{font-family:Inter,Segoe UI,Arial,sans-serif;font-weight:500;font-size:12px;fill:#c7d9eb}.m{font-family:Inter,Segoe UI,Arial,sans-serif;font-weight:600;font-size:10px;fill:#89a9c7;letter-spacing:.45px}.n{font-family:Inter,Segoe UI,Arial,sans-serif;font-weight:700;font-size:9px;fill:#dbeafe;letter-spacing:.6px}.glass{fill:url(#panel);stroke:#2d5b82;stroke-width:1.2}.chip{fill:#0a2139;stroke:#2f638c;stroke-width:1}.hair{stroke:#4e789a;stroke-width:1}.axis{stroke:#3d607f;stroke-width:1}.dim{fill:#7e9bb8}.white{fill:#f8fafc}
]]></style>
</defs><rect width="640" height="360" rx="26" fill="url(#bg)"/><rect width="640" height="360" rx="26" fill="url(#grid)"/><circle cx="520" cy="125" r="150" fill="url(#halo)" opacity=".22"/><text x="28" y="38" class="k">DATASET · UNCERTAINTY · ACTIVE LEARNING</text><text x="28" y="72" class="h2" font-size="27">DFT + ML</text><text x="28" y="96" class="s">Leakage-aware labels and bounded predictions</text><rect x="22" y="116" width="596" height="202" rx="22" class="glass" filter="url(#shadow)"/><g transform="translate(52 150)"><path d="M0 140H268M0 0V140" class="axis" fill="none"/><path d="M12 125L252 18" stroke="#a78bfa" stroke-width="3"/><path d="M12 139C70 113 140 102 252 27" fill="none" stroke="#fbbf24" stroke-opacity=".34" stroke-width="22"/><g fill="#67e8f9"><circle cx="24" cy="117" r="5"/><circle cx="60" cy="102" r="5"/><circle cx="97" cy="93" r="5"/><circle cx="138" cy="70" r="5"/><circle cx="188" cy="49" r="5"/><circle cx="235" cy="24" r="5"/></g><text x="134" y="160" text-anchor="middle" class="m">GROUPED SPLITS · UNCERTAINTY · APPLICABILITY DOMAIN</text></g><g transform="translate(360 158)"><circle cx="58" cy="60" r="42" fill="#0a2139" stroke="#34d399" stroke-width="2"/><circle cx="166" cy="60" r="42" fill="#0a2139" stroke="#fbbf24" stroke-width="2"/><path d="M100 60H122" stroke="#67e8f9" stroke-width="3" marker-end="url(#arrow)"/><path d="M166 105C140 145 78 142 58 104" fill="none" stroke="#a78bfa" stroke-width="2" stroke-dasharray="6 5"/><text x="58" y="57" text-anchor="middle" class="n">TRAIN</text><text x="58" y="73" text-anchor="middle" class="m">validated</text><text x="166" y="57" text-anchor="middle" class="n">QUERY</text><text x="166" y="73" text-anchor="middle" class="m">uncertain</text><text x="112" y="148" text-anchor="middle" class="m">ACTIVE LEARNING LOOP</text></g><rect x="0" y="332" width="640" height="28" fill="#020617" fill-opacity=".92"/><text x="622" y="351" text-anchor="end" class="m" fill="#7dd3fc">AI-ASSISTED CONCEPTUAL ILLUSTRATION · NOT COMPUTATIONAL DATA</text></svg>