<svg xmlns="http://www.w3.org/2000/svg" width="1120" height="500" viewBox="0 0 1120 500" role="img" aria-labelledby="title desc">
<title id="title">DFT + ML: provenance-aware evaluation</title><desc id="desc">Synthetic TsaoDFT demonstration figure; not scientific data.</desc>
<defs>
<style><![CDATA[
  .bg { fill:#f8fafc; } .panel { fill:#fff; stroke:#cbd5e1; stroke-width:1.2; }
  .title { font:700 24px Arial,Helvetica,sans-serif; fill:#0f172a; }
  .subtitle { font:400 13px Arial,Helvetica,sans-serif; fill:#475569; }
  .head { font:700 15px Arial,Helvetica,sans-serif; fill:#0f172a; }
  .body { font:400 12px Arial,Helvetica,sans-serif; fill:#334155; }
  .small { font:400 10px Arial,Helvetica,sans-serif; fill:#64748b; }
  .mono { font:600 10px Consolas,Menlo,monospace; fill:#334155; }
  .notice { font:700 10px Arial,Helvetica,sans-serif; fill:#9f1239; letter-spacing:.7px; }
]]></style>

</defs>
<rect class="bg" width="100%" height="100%" rx="18"/>
<text class="title" x="32" y="40">DFT + ML: provenance-aware evaluation</text>
<text class="subtitle" x="32" y="64">Grouped splitting prevents conformers from leaking across train and test sets.</text><rect class="panel" x="28" y="92" width="518" height="340" rx="18"/><rect class="panel" x="574" y="92" width="518" height="340" rx="18"/><line x1="88" y1="375" x2="478" y2="145" stroke="#94a3b8" stroke-dasharray="6 5"/><line x1="88" y1="375" x2="478" y2="375" stroke="#334155"/><line x1="88" y1="145" x2="88" y2="375" stroke="#334155"/><circle cx="115.9" cy="366.2" r="5.2" fill="#2563eb" opacity=".82"/><circle cx="135.5" cy="342.6" r="5.2" fill="#2563eb" opacity=".82"/><circle cx="155.2" cy="325.0" r="5.2" fill="#2563eb" opacity=".82"/><circle cx="174.8" cy="328.2" r="5.2" fill="#16a34a" opacity=".82"/><circle cx="194.5" cy="306.2" r="5.2" fill="#16a34a" opacity=".82"/><circle cx="214.2" cy="309.4" r="5.2" fill="#16a34a" opacity=".82"/><circle cx="233.8" cy="279.1" r="5.2" fill="#d97706" opacity=".82"/><circle cx="253.5" cy="280.1" r="5.2" fill="#d97706" opacity=".82"/><circle cx="273.2" cy="262.0" r="5.2" fill="#d97706" opacity=".82"/><circle cx="292.8" cy="260.8" r="5.2" fill="#9333ea" opacity=".82"/><circle cx="312.5" cy="234.4" r="5.2" fill="#9333ea" opacity=".82"/><circle cx="332.2" cy="232.7" r="5.2" fill="#9333ea" opacity=".82"/><circle cx="351.8" cy="214.5" r="5.2" fill="#e11d48" opacity=".82"/><circle cx="371.5" cy="217.7" r="5.2" fill="#e11d48" opacity=".82"/><circle cx="391.2" cy="189.6" r="5.2" fill="#e11d48" opacity=".82"/><circle cx="410.8" cy="187.9" r="5.2" fill="#0891b2" opacity=".82"/><circle cx="430.5" cy="170.8" r="5.2" fill="#0891b2" opacity=".82"/><circle cx="450.1" cy="152.7" r="5.2" fill="#0891b2" opacity=".82"/><text class="head" x="48" y="122">Prediction vs actual</text><text class="small" x="283" y="412" text-anchor="middle">Actual synthetic target</text><text class="small" transform="translate(54 260) rotate(-90)" text-anchor="middle">Predicted synthetic target</text><line x1="634" y1="260.0" x2="1024" y2="260.0" stroke="#64748b"/><line x1="634" y1="375" x2="1024" y2="375" stroke="#334155"/><line x1="634" y1="145" x2="634" y2="375" stroke="#334155"/><circle cx="648.9" cy="295.8" r="5.2" fill="#2563eb" opacity=".82"/><circle cx="688.9" cy="239.6" r="5.2" fill="#2563eb" opacity=".82"/><circle cx="718.8" cy="211.4" r="5.2" fill="#2563eb" opacity=".82"/><circle cx="713.4" cy="280.4" r="5.2" fill="#16a34a" opacity=".82"/><circle cx="750.7" cy="231.9" r="5.2" fill="#16a34a" opacity=".82"/><circle cx="745.3" cy="300.9" r="5.2" fill="#16a34a" opacity=".82"/><circle cx="796.6" cy="214.0" r="5.2" fill="#d97706" opacity=".82"/><circle cx="794.9" cy="272.8" r="5.2" fill="#d97706" opacity=".82"/><circle cx="825.7" cy="242.1" r="5.2" fill="#d97706" opacity=".82"/><circle cx="827.7" cy="290.7" r="5.2" fill="#9333ea" opacity=".82"/><circle cx="872.4" cy="221.7" r="5.2" fill="#9333ea" opacity=".82"/><circle cx="875.4" cy="267.7" r="5.2" fill="#9333ea" opacity=".82"/><circle cx="906.2" cy="237.0" r="5.2" fill="#e11d48" opacity=".82"/><circle cx="900.8" cy="306.0" r="5.2" fill="#e11d48" opacity=".82"/><circle cx="948.3" cy="229.3" r="5.2" fill="#e11d48" opacity=".82"/><circle cx="951.2" cy="275.3" r="5.2" fill="#0891b2" opacity=".82"/><circle cx="980.2" cy="249.8" r="5.2" fill="#0891b2" opacity=".82"/><circle cx="1011.0" cy="219.1" r="5.2" fill="#0891b2" opacity=".82"/><text class="head" x="594" y="122">Residual and leakage review</text><text class="small" x="829" y="412" text-anchor="middle">Predicted synthetic target</text><text class="small" transform="translate(604 260) rotate(-90)" text-anchor="middle">Residual</text><rect x="720" y="174" width="250" height="58" rx="12" fill="#ecfeff" stroke="#a5f3fc"/><text class="body" x="738" y="196">Parent molecule = grouping unit</text><text class="small" x="738" y="216">scaffold/group split · seeds/folds recorded</text><text class="small" x="32" y="462">Synthetic dashboard: no trained model, no performance claim, no SHAP interpretation.</text>
<text class="notice" x="1092" y="482" text-anchor="end">SYNTHETIC DEMO · NOT SCIENTIFIC DATA</text>
</svg>