<svg xmlns="http://www.w3.org/2000/svg" width="1080" height="500" viewBox="0 0 1080 500" role="img" aria-labelledby="title desc">
<title id="title">Free-energy profile with explicit validation gates</title><desc id="desc">Synthetic TsaoDFT demonstration figure; not scientific data.</desc>
<defs>
<style><![CDATA[
  .bg { fill:#f8fafc; } .panel { fill:#fff; stroke:#cbd5e1; stroke-width:1.2; }
  .title { font:700 24px Arial,Helvetica,sans-serif; fill:#0f172a; }
  .subtitle { font:400 13px Arial,Helvetica,sans-serif; fill:#475569; }
  .head { font:700 15px Arial,Helvetica,sans-serif; fill:#0f172a; }
  .body { font:400 12px Arial,Helvetica,sans-serif; fill:#334155; }
  .small { font:400 10px Arial,Helvetica,sans-serif; fill:#64748b; }
  .mono { font:600 10px Consolas,Menlo,monospace; fill:#334155; }
  .notice { font:700 10px Arial,Helvetica,sans-serif; fill:#9f1239; letter-spacing:.7px; }
]]></style>

</defs>
<rect class="bg" width="100%" height="100%" rx="18"/>
<text class="title" x="32" y="40">Free-energy profile with explicit validation gates</text>
<text class="subtitle" x="32" y="64">Relative Gibbs energies retain reference states, units and stationary-point status.</text><line x1="96" y1="385.3" x2="996" y2="385.3" stroke="#cbd5e1" stroke-width="1"/><text class="small" x="80" y="389.3" text-anchor="end">-10</text><line x1="96" y1="287.0" x2="996" y2="287.0" stroke="#cbd5e1" stroke-width="1"/><text class="small" x="80" y="291.0" text-anchor="end">0</text><line x1="96" y1="188.7" x2="996" y2="188.7" stroke="#cbd5e1" stroke-width="1"/><text class="small" x="80" y="192.7" text-anchor="end">10</text><line x1="96" y1="110" x2="96" y2="405" stroke="#334155"/><line x1="96" y1="405" x2="996" y2="405" stroke="#334155"/><path d="M96.0,287.0 L276.0,309.6 L456.0,141.5 L636.0,256.5 L816.0,181.8 L996.0,371.6" fill="none" stroke="#2563eb" stroke-width="3"/><circle cx="96.0" cy="287.0" r="7" fill="#2563eb" stroke="#fff" stroke-width="2"/><text class="head" x="96.0" y="269.0" text-anchor="middle">0.0</text><text class="body" x="96.0" y="430" text-anchor="middle">R</text><circle cx="276.0" cy="309.6" r="7" fill="#2563eb" stroke="#fff" stroke-width="2"/><text class="head" x="276.0" y="291.6" text-anchor="middle">-2.3</text><text class="body" x="276.0" y="430" text-anchor="middle">RC</text><circle cx="456.0" cy="141.5" r="7" fill="#e11d48" stroke="#fff" stroke-width="2"/><text class="head" x="456.0" y="123.5" text-anchor="middle">14.8</text><text class="body" x="456.0" y="430" text-anchor="middle">TS1</text><circle cx="636.0" cy="256.5" r="7" fill="#2563eb" stroke="#fff" stroke-width="2"/><text class="head" x="636.0" y="238.5" text-anchor="middle">3.1</text><text class="body" x="636.0" y="430" text-anchor="middle">IM</text><circle cx="816.0" cy="181.8" r="7" fill="#e11d48" stroke="#fff" stroke-width="2"/><text class="head" x="816.0" y="163.8" text-anchor="middle">10.7</text><text class="body" x="816.0" y="430" text-anchor="middle">TS2</text><circle cx="996.0" cy="371.6" r="7" fill="#2563eb" stroke="#fff" stroke-width="2"/><text class="head" x="996.0" y="353.6" text-anchor="middle">-8.6</text><text class="body" x="996.0" y="430" text-anchor="middle">P</text><text class="body" transform="translate(25 300) rotate(-90)" text-anchor="middle">Relative Gibbs free energy (kcal mol⁻¹)</text><text class="body" x="546" y="456" text-anchor="middle">Validated reaction coordinate</text><rect x="676" y="78" width="320" height="50" rx="12" fill="#fff1f2" stroke="#fecdd3"/><text class="small" x="692" y="98">TS acceptance requires:</text><text class="small" x="692" y="116">one target mode + forward/reverse IRC + endpoints</text>
<text class="notice" x="1052" y="482" text-anchor="end">SYNTHETIC DEMO · NOT SCIENTIFIC DATA</text>
</svg>