<svg xmlns="http://www.w3.org/2000/svg" width="1120" height="470" viewBox="0 0 1120 470" role="img" aria-labelledby="title desc">
<title id="title">Wavefunction and surface figure contract</title><desc id="desc">Synthetic TsaoDFT demonstration figure; not scientific data.</desc>
<defs>
<style><![CDATA[
  .bg { fill:#f8fafc; } .panel { fill:#fff; stroke:#cbd5e1; stroke-width:1.2; }
  .title { font:700 24px Arial,Helvetica,sans-serif; fill:#0f172a; }
  .subtitle { font:400 13px Arial,Helvetica,sans-serif; fill:#475569; }
  .head { font:700 15px Arial,Helvetica,sans-serif; fill:#0f172a; }
  .body { font:400 12px Arial,Helvetica,sans-serif; fill:#334155; }
  .small { font:400 10px Arial,Helvetica,sans-serif; fill:#64748b; }
  .mono { font:600 10px Consolas,Menlo,monospace; fill:#334155; }
  .notice { font:700 10px Arial,Helvetica,sans-serif; fill:#9f1239; letter-spacing:.7px; }
]]></style>
<linearGradient id="esp" x1="0" y1="0" x2="1" y2="0"><stop offset="0" stop-color="#1d4ed8"/><stop offset=".48" stop-color="#f8fafc"/><stop offset="1" stop-color="#dc2626"/></linearGradient>
<radialGradient id="surface" cx="50%" cy="45%"><stop offset="0" stop-color="#fff" stop-opacity=".35"/><stop offset="1" stop-color="#94a3b8" stop-opacity=".55"/></radialGradient>
</defs>
<rect class="bg" width="100%" height="100%" rx="18"/>
<text class="title" x="32" y="40">Wavefunction and surface figure contract</text>
<text class="subtitle" x="32" y="64">Matched isovalues, camera and color conventions make comparison auditable.</text><rect class="panel" x="28" y="92" width="330" height="310" rx="18"/><text class="head" x="48" y="124">HOMO</text><text class="small" x="338" y="124" text-anchor="end">−5.62 eV</text><ellipse cx="141" cy="238" rx="48" ry="30" fill="#dc2626" opacity=".72" transform="rotate(-12 141 238)"/>
<ellipse cx="245" cy="238" rx="48" ry="30" fill="#2563eb" opacity=".72" transform="rotate(12 245 238)"/>
<circle cx="123" cy="238" r="9" fill="#38bdf8" stroke="#0f172a"/><circle cx="193" cy="238" r="8" fill="#d1d5db" stroke="#0f172a"/><circle cx="263" cy="238" r="9" fill="#38bdf8" stroke="#0f172a"/>
<line x1="132" y1="238" x2="184" y2="238" stroke="#334155" stroke-width="3"/><line x1="202" y1="238" x2="254" y2="238" stroke="#334155" stroke-width="3"/><text class="mono" x="193" y="340" text-anchor="middle">|ψ| = 0.020 a.u.</text><text class="small" x="193" y="365" text-anchor="middle">red / blue = opposite wavefunction phase</text><rect class="panel" x="385" y="92" width="330" height="310" rx="18"/><text class="head" x="405" y="124">LUMO</text><text class="small" x="695" y="124" text-anchor="end">−1.84 eV</text><ellipse cx="498" cy="238" rx="48" ry="30" fill="#2563eb" opacity=".72" transform="rotate(-12 498 238)"/>
<ellipse cx="602" cy="238" rx="48" ry="30" fill="#dc2626" opacity=".72" transform="rotate(12 602 238)"/>
<circle cx="480" cy="238" r="9" fill="#38bdf8" stroke="#0f172a"/><circle cx="550" cy="238" r="8" fill="#d1d5db" stroke="#0f172a"/><circle cx="620" cy="238" r="9" fill="#38bdf8" stroke="#0f172a"/>
<line x1="489" y1="238" x2="541" y2="238" stroke="#334155" stroke-width="3"/><line x1="559" y1="238" x2="611" y2="238" stroke="#334155" stroke-width="3"/><text class="mono" x="550" y="340" text-anchor="middle">|ψ| = 0.020 a.u.</text><text class="small" x="550" y="365" text-anchor="middle">red / blue = opposite wavefunction phase</text><rect class="panel" x="742" y="92" width="330" height="310" rx="18"/><text class="head" x="762" y="124">ESP</text><text class="small" x="1052" y="124" text-anchor="end">ρ = 0.001 a.u.</text><ellipse cx="907" cy="235" rx="122" ry="72" fill="url(#esp)" opacity=".84" stroke="#475569" stroke-width="1.2"/><ellipse cx="907" cy="235" rx="103" ry="56" fill="url(#surface)" opacity=".38"/><circle cx="837" cy="235" r="9" fill="#38bdf8" stroke="#0f172a"/><circle cx="907" cy="235" r="9" fill="#d1d5db" stroke="#0f172a"/><circle cx="977" cy="235" r="9" fill="#38bdf8" stroke="#0f172a"/><rect x="814" y="327" width="186" height="14" rx="7" fill="url(#esp)"/><text class="small" x="814" y="360">−0.060</text><text class="small" x="1000" y="360" text-anchor="end">+0.060 a.u.</text><text class="mono" x="907" y="384" text-anchor="middle">shared symmetric scale</text><rect x="385" y="414" width="330" height="28" rx="10" fill="#e2e8f0"/><text class="body" x="550" y="433" text-anchor="middle">ΔE(H–L) = 3.78 eV · synthetic</text>
<text class="notice" x="1092" y="452" text-anchor="end">SYNTHETIC DEMO · NOT SCIENTIFIC DATA</text>
</svg>