<svg xmlns="http://www.w3.org/2000/svg" width="1180" height="430" viewBox="0 0 1180 430" role="img" aria-labelledby="title desc">
<title id="title">TsaoDFT auditable research loop</title><desc id="desc">Synthetic TsaoDFT demonstration figure; not scientific data.</desc>
<defs>
<style><![CDATA[
  .bg { fill:#f8fafc; } .panel { fill:#fff; stroke:#cbd5e1; stroke-width:1.2; }
  .title { font:700 24px Arial,Helvetica,sans-serif; fill:#0f172a; }
  .subtitle { font:400 13px Arial,Helvetica,sans-serif; fill:#475569; }
  .head { font:700 15px Arial,Helvetica,sans-serif; fill:#0f172a; }
  .body { font:400 12px Arial,Helvetica,sans-serif; fill:#334155; }
  .small { font:400 10px Arial,Helvetica,sans-serif; fill:#64748b; }
  .mono { font:600 10px Consolas,Menlo,monospace; fill:#334155; }
  .notice { font:700 10px Arial,Helvetica,sans-serif; fill:#9f1239; letter-spacing:.7px; }
]]></style>
<filter id="shadow" x="-20%" y="-20%" width="140%" height="140%"><feDropShadow dx="0" dy="3" stdDeviation="4" flood-color="#0f172a" flood-opacity=".10"/></filter>
<marker id="arrow" markerWidth="8" markerHeight="8" refX="7" refY="4" orient="auto"><path d="M0,0 L8,4 L0,8 Z" fill="#64748b"/></marker>
</defs>
<rect class="bg" width="100%" height="100%" rx="18"/>
<text class="title" x="32" y="40">TsaoDFT auditable research loop</text>
<text class="subtitle" x="32" y="64">Observable-first planning, deterministic checks and human scientific acceptance.</text><g filter="url(#shadow)"><rect x="34" y="112" width="156" height="150" rx="16" fill="#dbeafe" stroke="#2563eb" stroke-width="1.5"/><rect x="34" y="112" width="7" height="150" rx="4" fill="#2563eb"/></g><text class="head" x="52" y="159">Scientific</text><text class="head" x="52" y="178">question</text><text class="body" x="52" y="212">Observable</text><text class="body" x="52" y="231">scope</text><path d="M197,187.0 H217" fill="none" stroke="#64748b" stroke-width="2" marker-end="url(#arrow)"/><g filter="url(#shadow)"><rect x="224" y="112" width="156" height="150" rx="16" fill="#dcfce7" stroke="#16a34a" stroke-width="1.5"/><rect x="224" y="112" width="7" height="150" rx="4" fill="#16a34a"/></g><text class="head" x="242" y="167">Gaussian</text><text class="body" x="242" y="212">Opt/Freq</text><text class="body" x="242" y="231">TS/IRC</text><path d="M387,187.0 H407" fill="none" stroke="#64748b" stroke-width="2" marker-end="url(#arrow)"/><g filter="url(#shadow)"><rect x="414" y="112" width="156" height="150" rx="16" fill="#fef3c7" stroke="#d97706" stroke-width="1.5"/><rect x="414" y="112" width="7" height="150" rx="4" fill="#d97706"/></g><text class="head" x="432" y="167">Validation</text><text class="body" x="432" y="212">SCF</text><text class="body" x="432" y="231">modes · state</text><path d="M577,187.0 H597" fill="none" stroke="#64748b" stroke-width="2" marker-end="url(#arrow)"/><g filter="url(#shadow)"><rect x="604" y="112" width="156" height="150" rx="16" fill="#f3e8ff" stroke="#9333ea" stroke-width="1.5"/><rect x="604" y="112" width="7" height="150" rx="4" fill="#9333ea"/></g><text class="head" x="622" y="167">Multiwfn</text><text class="body" x="622" y="212">ESP</text><text class="body" x="622" y="231">NTO · IGMH</text><path d="M767,187.0 H787" fill="none" stroke="#64748b" stroke-width="2" marker-end="url(#arrow)"/><g filter="url(#shadow)"><rect x="794" y="112" width="156" height="150" rx="16" fill="#ffe4e6" stroke="#e11d48" stroke-width="1.5"/><rect x="794" y="112" width="7" height="150" rx="4" fill="#e11d48"/></g><text class="head" x="812" y="167">VMD + plots</text><text class="body" x="812" y="212">Shared camera</text><text class="body" x="812" y="231">scale</text><path d="M957,187.0 H977" fill="none" stroke="#64748b" stroke-width="2" marker-end="url(#arrow)"/><g filter="url(#shadow)"><rect x="984" y="112" width="156" height="150" rx="16" fill="#cffafe" stroke="#0891b2" stroke-width="1.5"/><rect x="984" y="112" width="7" height="150" rx="4" fill="#0891b2"/></g><text class="head" x="1002" y="167">Evidence</text><text class="body" x="1002" y="212">Artifacts</text><text class="body" x="1002" y="231">claims</text><rect x="220" y="310" width="740" height="56" rx="14" fill="#0f172a"/><text x="590" y="334" text-anchor="middle" style="font:700 13px Arial;fill:#fff">completed ≠ validated ≠ accepted</text><text x="590" y="354" text-anchor="middle" style="font:400 11px Arial;fill:#cbd5e1">every panel traces back to a source artifact, parameter set and bounded claim</text>
<text class="notice" x="1152" y="412" text-anchor="end">SYNTHETIC DEMO · NOT SCIENTIFIC DATA</text>
</svg>